<svg version="1.0" xmlns="http://www.w3.org/2000/svg"
 width="300.000000pt" height="56.000000pt" viewBox="0 0 300.000000 56.000000"
 preserveAspectRatio="xMidYMid meet">
<metadata>
Created by potrace 1.10, written by Peter Selinger 2001-2011
</metadata>
<g transform="translate(0.000000,56.000000) scale(0.100000,-0.100000)"
fill="white" stroke="none">
<path d="M2207 502 c-15 -16 -17 -48 -17 -235 l0 -217 65 0 65 0 0 235 0 235
-48 0 c-35 0 -54 -5 -65 -18z m73 -2 c18 0 19 -12 22 -215 l3 -215 -42 0 -43
0 0 213 c0 118 3 217 7 221 4 3 13 4 21 1 7 -3 22 -5 32 -5z"/>
<path d="M2392 487 c-36 -37 -42 -80 -14 -96 14 -8 15 -12 5 -22 -9 -9 -13
-57 -13 -166 l0 -153 65 0 65 0 0 164 c0 99 -4 167 -10 171 -7 4 -10 -50 -10
-154 l0 -161 -40 0 -40 0 0 155 0 155 27 0 c33 0 83 45 83 75 0 26 -39 65 -66
65 -11 0 -34 -15 -52 -33z m96 -36 c-2 -17 -13 -31 -31 -39 -25 -12 -31 -12
-48 4 -10 9 -19 25 -19 34 0 18 25 44 50 52 23 8 51 -22 48 -51z"/>
<path d="M130 491 c-6 -12 -10 -104 -10 -230 l0 -211 65 0 65 0 0 65 0 65 78
0 78 0 46 46 c45 44 47 48 53 121 l8 75 -44 44 -43 44 -143 0 c-130 0 -143 -2
-153 -19z m328 -34 c30 -29 32 -35 32 -100 0 -62 -3 -72 -32 -108 l-31 -39
-94 0 -93 0 0 -70 0 -70 -45 0 -45 0 0 208 c0 115 2 211 4 213 2 2 64 3 138 1
l133 -3 33 -32z"/>
<path d="M240 350 l0 -70 75 0 c87 0 93 6 85 82 l-5 53 -77 3 -78 3 0 -71z
m130 -9 l0 -49 -60 0 -60 0 0 49 0 49 60 0 60 0 0 -49z"/>
<path d="M210 332 c-3 -34 -2 -62 1 -62 12 0 15 24 9 75 l-6 50 -4 -63z"/>
<path d="M1595 458 c-45 -50 -55 -83 -25 -83 9 0 16 12 18 30 2 17 17 44 33
60 25 27 36 31 81 30 52 0 52 0 54 -32 1 -24 -3 -33 -15 -34 -9 -1 -23 -3 -31
-4 -8 -1 -20 -3 -26 -4 -7 0 -14 -9 -17 -20 -4 -17 0 -18 37 -14 57 8 66 18
66 74 l0 49 -64 0 -64 0 -47 -52z"/>
<path d="M1261 466 c-17 -21 -10 -91 9 -91 11 0 16 13 18 47 3 47 4 48 35 45
30 -2 32 -5 37 -47 l5 -45 48 -3 c46 -3 47 -4 47 -38 0 -34 0 -34 -44 -34
l-44 0 -7 -65 c-9 -79 7 -105 62 -105 30 0 33 -3 33 -30 0 -30 0 -30 -58 -30
-53 0 -61 3 -90 33 -31 32 -32 36 -32 115 0 81 0 82 -25 82 -23 0 -25 4 -25
41 0 36 -2 40 -15 29 -9 -8 -15 -30 -15 -56 0 -40 2 -44 25 -44 25 0 25 -1 25
-82 0 -75 2 -84 27 -110 25 -26 32 -28 110 -28 l83 0 0 49 0 50 -42 3 -43 3
-3 58 -3 57 34 0 c45 0 57 15 57 72 l0 48 -45 0 -45 0 0 45 0 45 -54 0 c-34 0
-58 -5 -65 -14z"/>
<path d="M581 338 l-51 -53 0 -91 c0 -86 1 -92 28 -117 27 -26 32 -27 138 -27
l110 0 37 38 37 38 0 95 0 95 -38 37 c-38 37 -38 37 -124 37 l-86 0 -51 -52z
m256 0 c32 -31 33 -34 33 -117 0 -82 -1 -86 -32 -118 -32 -33 -33 -33 -123
-33 -90 0 -91 0 -124 34 l-33 34 7 87 c7 81 10 89 39 116 29 26 37 28 116 29
81 0 85 -1 117 -32z"/>
<path d="M683 353 c20 -2 54 -2 75 0 20 2 3 4 -38 4 -41 0 -58 -2 -37 -4z"/>
<path d="M657 293 c-12 -11 -8 -138 5 -151 15 -15 82 -16 109 -2 16 9 19 22
19 73 0 36 -5 68 -12 75 -13 13 -110 17 -121 5z m98 -44 c4 -12 4 -41 0 -65
l-6 -45 -37 7 c-52 9 -52 9 -52 70 l0 54 44 0 c37 0 46 -4 51 -21z"/>
<path d="M942 374 c-21 -15 -22 -21 -22 -170 l0 -154 65 0 65 0 0 93 c0 107
11 127 71 127 47 0 59 15 59 72 l0 48 -49 0 c-32 0 -53 -5 -62 -16 -11 -14
-13 -14 -21 0 -12 21 -77 21 -106 0z m94 -20 c-9 -22 10 -25 29 -4 13 14 31
20 62 20 43 0 43 0 43 -35 0 -34 -1 -35 -37 -35 -26 0 -45 -8 -65 -27 -27 -25
-28 -31 -28 -115 l0 -88 -45 0 -45 0 0 124 c0 68 3 137 6 152 5 27 8 29 45 26
29 -3 39 -8 35 -18z"/>
<path d="M1846 338 l-46 -53 0 -90 c0 -87 1 -93 28 -118 27 -26 32 -27 138
-27 l110 0 37 38 37 38 0 95 0 95 -38 37 -38 37 -91 0 -91 0 -46 -52z m256 5
c27 -26 28 -31 28 -123 0 -92 -1 -97 -28 -123 -26 -25 -34 -27 -118 -27 -87 0
-91 1 -122 31 -31 30 -32 34 -32 115 0 79 2 85 31 119 l31 35 91 0 c85 0 93
-2 119 -27z"/>
<path d="M1920 352 c0 -4 21 -6 48 -4 82 5 89 9 20 11 -38 0 -68 -2 -68 -7z"/>
<path d="M1927 294 c-12 -12 -8 -139 5 -152 17 -17 93 -15 107 2 7 9 11 41 9
83 l-3 68 -55 3 c-31 2 -59 0 -63 -4z m91 -93 c3 -62 2 -63 -20 -57 -13 3 -33
6 -45 6 -21 0 -23 4 -23 61 l0 60 43 -3 42 -3 3 -64z"/>
<path d="M2588 339 l-48 -51 0 -92 c0 -88 1 -94 28 -119 27 -26 32 -27 138
-27 109 0 110 0 139 30 16 16 26 32 23 35 -2 3 -15 -6 -28 -20 -22 -23 -30
-25 -115 -25 -91 0 -91 0 -124 34 -33 34 -33 34 -30 120 4 83 5 86 39 115 33
28 40 30 121 31 79 0 87 -2 109 -25 13 -14 26 -23 28 -20 3 3 -7 19 -23 35
-28 29 -32 30 -119 30 l-90 0 -48 -51z"/>
<path d="M1513 369 c-7 -7 -13 -32 -13 -56 0 -39 2 -43 25 -43 l25 0 0 -110 0
-110 65 0 65 0 0 110 0 110 33 0 c45 0 57 16 55 69 l-1 46 -4 -42 -4 -43 -44
0 -44 0 -6 -55 c-4 -31 -5 -82 -3 -115 l4 -60 -43 0 -44 0 3 115 3 115 -27 0
c-24 0 -27 4 -30 41 -2 32 -5 38 -15 28z"/>
<path d="M2663 353 c7 -7 129 -4 136 3 2 2 -29 4 -69 4 -40 0 -70 -3 -67 -7z"/>
<path d="M2667 293 c-12 -11 -8 -138 5 -151 18 -18 93 -15 109 4 13 16 17 123
4 143 -7 12 -107 15 -118 4z m90 -35 c5 -7 7 -37 5 -66 l-4 -54 -36 7 c-52 10
-52 10 -52 71 l0 54 39 0 c21 0 43 -6 48 -12z"/>
</g>
</svg>

